<svg width="20" height="20" viewBox="0 0 20 20" fill="none" xmlns="http://www.w3.org/2000/svg">
<path fill-rule="evenodd" clip-rule="evenodd" d="M9.16669 9.16602V2.49935C9.16669 2.03911 9.53978 1.66602 10 1.66602C10.4603 1.66602 10.8334 2.03911 10.8334 2.49935V9.16602H17.5C17.9603 9.16602 18.3334 9.53911 18.3334 9.99935C18.3334 10.4596 17.9603 10.8327 17.5 10.8327H10.8334V17.4993C10.8334 17.9596 10.4603 18.3327 10 18.3327C9.53978 18.3327 9.16669 17.9596 9.16669 17.4993V10.8327H2.50002C2.03978 10.8327 1.66669 10.4596 1.66669 9.99935C1.66669 9.53911 2.03978 9.16602 2.50002 9.16602H9.16669Z" fill="white"/>
</svg>
