<svg width="23" height="20" viewBox="0 0 23 20" fill="none" xmlns="http://www.w3.org/2000/svg">
<path d="M1.26123 3.81836H21.5737C22.0052 3.81836 22.355 3.4686 22.355 3.03711V1.08398C22.355 0.65249 22.0052 0.302734 21.5737 0.302734H1.26123C0.829736 0.302734 0.47998 0.65249 0.47998 1.08398V3.03711C0.47998 3.4686 0.829736 3.81836 1.26123 3.81836ZM1.26123 11.6309H21.5737C22.0052 11.6309 22.355 11.2811 22.355 10.8496V8.89648C22.355 8.46499 22.0052 8.11523 21.5737 8.11523H1.26123C0.829736 8.11523 0.47998 8.46499 0.47998 8.89648V10.8496C0.47998 11.2811 0.829736 11.6309 1.26123 11.6309ZM1.26123 19.4434H21.5737C22.0052 19.4434 22.355 19.0936 22.355 18.6621V16.709C22.355 16.2775 22.0052 15.9277 21.5737 15.9277H1.26123C0.829736 15.9277 0.47998 16.2775 0.47998 16.709V18.6621C0.47998 19.0936 0.829736 19.4434 1.26123 19.4434Z" fill="black"/>
</svg>
