<svg width="23" height="20" viewBox="0 0 23 20" fill="none" xmlns="http://www.w3.org/2000/svg">
<path d="M1.26135 3.81836H21.5739C22.0053 3.81836 22.3551 3.4686 22.3551 3.03711V1.08398C22.3551 0.65249 22.0053 0.302734 21.5739 0.302734H1.26135C0.829858 0.302734 0.480103 0.65249 0.480103 1.08398V3.03711C0.480103 3.4686 0.829858 3.81836 1.26135 3.81836ZM1.26135 11.6309H21.5739C22.0053 11.6309 22.3551 11.2811 22.3551 10.8496V8.89648C22.3551 8.46499 22.0053 8.11523 21.5739 8.11523H1.26135C0.829858 8.11523 0.480103 8.46499 0.480103 8.89648V10.8496C0.480103 11.2811 0.829858 11.6309 1.26135 11.6309ZM1.26135 19.4434H21.5739C22.0053 19.4434 22.3551 19.0936 22.3551 18.6621V16.709C22.3551 16.2775 22.0053 15.9277 21.5739 15.9277H1.26135C0.829858 15.9277 0.480103 16.2775 0.480103 16.709V18.6621C0.480103 19.0936 0.829858 19.4434 1.26135 19.4434Z" fill="black"/>
</svg>
