<svg width="23" height="20" viewBox="0 0 23 20" fill="none" xmlns="http://www.w3.org/2000/svg">
<path d="M1.26147 3.81836H21.574C22.0055 3.81836 22.3552 3.4686 22.3552 3.03711V1.08398C22.3552 0.65249 22.0055 0.302734 21.574 0.302734H1.26147C0.82998 0.302734 0.480225 0.65249 0.480225 1.08398V3.03711C0.480225 3.4686 0.82998 3.81836 1.26147 3.81836ZM1.26147 11.6309H21.574C22.0055 11.6309 22.3552 11.2811 22.3552 10.8496V8.89648C22.3552 8.46499 22.0055 8.11523 21.574 8.11523H1.26147C0.82998 8.11523 0.480225 8.46499 0.480225 8.89648V10.8496C0.480225 11.2811 0.82998 11.6309 1.26147 11.6309ZM1.26147 19.4434H21.574C22.0055 19.4434 22.3552 19.0936 22.3552 18.6621V16.709C22.3552 16.2775 22.0055 15.9277 21.574 15.9277H1.26147C0.82998 15.9277 0.480225 16.2775 0.480225 16.709V18.6621C0.480225 19.0936 0.82998 19.4434 1.26147 19.4434Z" fill="black"/>
</svg>
